<?xml version="1.0" encoding="UTF-8" standalone="no"?>
<!DOCTYPE svg PUBLIC "-//W3C//DTD SVG 1.1//EN" "http://www.w3.org/Graphics/SVG/1.1/DTD/svg11.dtd">
<svg width="100%" height="100%" viewBox="0 0 173 155" version="1.1" xmlns="http://www.w3.org/2000/svg" xmlns:xlink="http://www.w3.org/1999/xlink" xml:space="preserve" xmlns:serif="http://www.serif.com/" style="fill-rule:evenodd;clip-rule:evenodd;stroke-linejoin:round;stroke-miterlimit:2;">
    <g transform="matrix(1,0,0,1,-680.129149,-39.34168)">
        <g id="NewsIcon" transform="matrix(0.307227,0,0,0.743858,378.912536,-118.634448)">
            <path d="M1040.977,248.336L1040.977,243.468C1040.977,226.307 1074.711,212.374 1116.262,212.374L1467.595,212.374C1509.146,212.374 1542.88,226.307 1542.88,243.468L1542.88,388.575C1542.88,405.736 1509.146,419.669 1467.595,419.669L1116.262,419.669C1114.582,419.669 1112.914,419.647 1111.261,419.602C1110.026,419.646 1108.777,419.669 1107.514,419.669L1022.796,419.669C999.418,419.669 980.437,411.83 980.437,402.174L980.437,267.729C980.437,258.073 999.418,250.234 1022.796,250.234L1028.942,250.234C1029.238,261.295 1031.404,346.008 1028.914,369.743C1028.087,377.633 1027.799,389.677 1022.79,396.19C1022.095,397.093 1021.325,397.871 1020.392,398.472C1020.109,398.654 1019.819,398.815 1019.5,398.948C1019.343,399.014 1019.245,399.103 1019.041,399.103C1015.65,399.103 1012.897,400.24 1012.897,401.641C1012.897,403.041 1015.65,404.178 1019.041,404.178C1022.349,404.178 1025.317,403.67 1027.899,402.654C1030.515,401.625 1032.8,399.937 1034.501,397.727C1039.762,390.887 1040.321,378.249 1041.191,369.962C1043.862,344.495 1041.196,248.981 1041.196,248.981C1041.19,248.758 1041.114,248.542 1040.977,248.336ZM1107.454,358.363L1478.224,358.363C1483.128,358.363 1487.11,356.718 1487.11,354.693C1487.11,352.667 1483.128,351.022 1478.224,351.022L1107.454,351.022C1102.549,351.022 1098.567,352.667 1098.567,354.693C1098.567,356.718 1102.549,358.363 1107.454,358.363ZM1107.454,284.956L1267.574,284.956C1272.479,284.956 1276.461,283.311 1276.461,281.286C1276.461,279.26 1272.479,277.615 1267.574,277.615L1107.454,277.615C1102.549,277.615 1098.567,279.26 1098.567,281.286C1098.567,283.311 1102.549,284.956 1107.454,284.956ZM1107.454,260.487L1267.574,260.487C1272.479,260.487 1276.461,258.843 1276.461,256.817C1276.461,254.791 1272.479,253.147 1267.574,253.147L1107.454,253.147C1102.549,253.147 1098.567,254.791 1098.567,256.817C1098.567,258.843 1102.549,260.487 1107.454,260.487ZM1107.454,333.894L1478.224,333.894C1483.128,333.894 1487.11,332.249 1487.11,330.224C1487.11,328.198 1483.128,326.553 1478.224,326.553L1107.454,326.553C1102.549,326.553 1098.567,328.198 1098.567,330.224C1098.567,332.249 1102.549,333.894 1107.454,333.894ZM1487.11,258.985C1487.11,253.072 1475.488,248.272 1461.172,248.272L1335.564,248.272C1321.248,248.272 1309.626,253.072 1309.626,258.985L1309.626,303.587C1309.626,309.499 1321.248,314.3 1335.564,314.3L1461.172,314.3C1475.488,314.3 1487.11,309.499 1487.11,303.587L1487.11,258.985ZM1469.337,258.985L1469.337,303.587C1469.337,305.448 1465.678,306.959 1461.172,306.959L1335.564,306.959C1331.058,306.959 1327.399,305.448 1327.399,303.587L1327.399,258.985C1327.399,257.123 1331.058,255.612 1335.564,255.612L1461.172,255.612C1465.678,255.612 1469.337,257.123 1469.337,258.985ZM1107.454,309.425L1267.574,309.425C1272.479,309.425 1276.461,307.78 1276.461,305.755C1276.461,303.729 1272.479,302.084 1267.574,302.084L1107.454,302.084C1102.549,302.084 1098.567,303.729 1098.567,305.755C1098.567,307.78 1102.549,309.425 1107.454,309.425Z" style="fill:white;"/>
        </g>
    </g>
</svg>
