<?xml version="1.0" encoding="UTF-8" standalone="no"?>
<!DOCTYPE svg PUBLIC "-//W3C//DTD SVG 1.1//EN" "http://www.w3.org/Graphics/SVG/1.1/DTD/svg11.dtd">
<svg width="100%" height="100%" viewBox="0 0 150 155" version="1.1" xmlns="http://www.w3.org/2000/svg" xmlns:xlink="http://www.w3.org/1999/xlink" xml:space="preserve" xmlns:serif="http://www.serif.com/" style="fill-rule:evenodd;clip-rule:evenodd;stroke-linejoin:round;stroke-miterlimit:2;">
    <g transform="matrix(1,0,0,1,-471.239426,-33.668383)">
        <g id="SettingsIcon" transform="matrix(1,0,0,1,-95.365488,-22.916753)">
            <path d="M661.258,64.372L662.417,74.2C669.57,76.76 676.203,80.59 681.996,85.504L696.164,79.41L699.753,83.612C705.888,90.795 710.65,99.044 713.803,107.948L715.648,113.158L703.286,122.38C704.646,129.854 704.646,137.514 703.286,144.988L715.648,154.21L713.803,159.42C710.65,168.324 705.888,176.573 699.753,183.756L696.164,187.959L681.996,181.864C676.203,186.778 669.57,190.608 662.417,193.168L660.611,208.485L655.177,209.492C645.889,211.214 636.364,211.214 627.076,209.492L621.642,208.485L619.837,193.168C612.684,190.608 606.051,186.778 600.257,181.864L586.09,187.959L582.5,183.756C576.365,176.573 571.603,168.324 568.45,159.42L566.605,154.21L578.967,144.988C577.608,137.514 577.608,129.855 578.967,122.38L566.605,113.158L568.45,107.948C571.603,99.044 576.365,90.795 582.5,83.612L586.09,79.41L600.257,85.504C606.05,80.59 612.684,76.76 619.836,74.2L621.642,58.883L627.076,57.876C636.364,56.155 645.889,56.155 655.177,57.876L660.611,58.883L661.258,64.372ZM641.127,97.868C621.359,97.868 605.31,113.917 605.31,133.684C605.31,153.452 621.359,169.5 641.127,169.5C660.894,169.5 676.943,153.452 676.943,133.684C676.943,113.917 660.894,97.868 641.127,97.868Z" style="fill:white;"/>
        </g>
    </g>
</svg>
